<?xml version="1.0" encoding="UTF-8" standalone="no"?>
<!-- Created with Inkscape (http://www.inkscape.org/) -->
<svg width="512" height="512" viewBox="0 0 512 512" version="1.1" id="svg1"
    xmlns="http://www.w3.org/2000/svg"
    xmlns:svg="http://www.w3.org/2000/svg">
    <style>
    .fg { fill: #5a536b; }
    .fg-stroke { fill: none; stroke: #5a536b; }
    .bg { fill: #ffffff; }
    @media (prefers-color-scheme: dark) {
        .fg { fill: #ffffff; }
        .fg-stroke { fill: none; stroke: #ffffff; }
        .bg { fill: #5a536b; }
    }
    </style>
    <rect class="fg-stroke" stroke-width="64" width="448" height="448" x="32" y="32" />
    <circle class="fg" cx="64" cy="448" r="64" />
    <circle class="fg" cx="64" cy="320" r="64" />
    <circle class="fg" cx="64" cy="192" r="64" />
    <circle class="fg" cx="64" cy="64" r="64" />
    <circle class="fg" cx="128" cy="128" r="54" />
    <circle class="fg" cx="128" cy="256" r="54" />
    <circle class="fg" cx="128" cy="384" r="54" />
    <circle class="fg" cx="192" cy="64" r="44" />
    <circle class="fg" cx="192" cy="192" r="44" />
    <circle class="fg" cx="192" cy="320" r="44" />
    <circle class="fg" cx="192" cy="448" r="44" />
    <circle class="fg" cx="256" cy="128" r="34" />
    <circle class="fg" cx="256" cy="256" r="34" />
    <circle class="fg" cx="256" cy="384" r="34" />
    <circle class="fg" cx="320" cy="64" r="24" />
    <circle class="fg" cx="320" cy="192" r="24" />
    <circle class="fg" cx="320" cy="320" r="24" />
    <circle class="fg" cx="320" cy="448" r="24" />
    <circle class="fg" cx="384" cy="128" r="14" />
    <circle class="fg" cx="384" cy="256" r="14" />
    <circle class="fg" cx="384" cy="384" r="14" />
    <rect class="fg" width="50" height="315" x="37" y="92" />
</svg>
